<svg width="31" height="32" viewBox="0 0 31 32" fill="none" xmlns="http://www.w3.org/2000/svg">
<path opacity="0.8" d="M28.917 0.700195H1.683C1.23664 0.700195 0.808563 0.877511 0.49294 1.19313C0.177316 1.50876 0 1.93684 0 2.3832V29.6172C0 30.0636 0.177316 30.4916 0.49294 30.8073C0.808563 31.1229 1.23664 31.3002 1.683 31.3002H16.3404V19.4427H12.3624V14.8527H16.3404V11.4102C16.258 10.602 16.3534 9.78553 16.62 9.0181C16.8865 8.25067 17.3177 7.55084 17.8834 6.9677C18.449 6.38457 19.1354 5.93225 19.8943 5.64246C20.6533 5.35267 21.4665 5.23244 22.2768 5.2902C23.4676 5.28287 24.6579 5.34417 25.8417 5.4738V9.6048H23.409C21.4812 9.6048 21.114 10.5228 21.114 11.8539V14.8068H25.704L25.1073 19.3968H21.114V31.3002H28.917C29.138 31.3002 29.3569 31.2567 29.5611 31.1721C29.7653 31.0875 29.9508 30.9635 30.1071 30.8073C30.2633 30.651 30.3873 30.4654 30.4719 30.2613C30.5565 30.0571 30.6 29.8382 30.6 29.6172V2.3832C30.6 2.16218 30.5565 1.94333 30.4719 1.73914C30.3873 1.53495 30.2633 1.34942 30.1071 1.19313C29.9508 1.03685 29.7653 0.912885 29.5611 0.828306C29.3569 0.743728 29.138 0.700195 28.917 0.700195Z" fill="black"/>
</svg>
