<svg width="31" height="32" viewBox="0 0 31 32" fill="none" xmlns="http://www.w3.org/2000/svg">
<path opacity="0.8" d="M15.5008 11.4102C14.2834 11.4102 13.1159 11.8938 12.2551 12.7546C11.3943 13.6154 10.9108 14.7829 10.9108 16.0002C10.9108 17.2175 11.3943 18.385 12.2551 19.2458C13.1159 20.1066 14.2834 20.5902 15.5008 20.5902C16.7181 20.5902 17.8856 20.1066 18.7464 19.2458C19.6072 18.385 20.0908 17.2175 20.0908 16.0002C20.0908 14.7829 19.6072 13.6154 18.7464 12.7546C17.8856 11.8938 16.7181 11.4102 15.5008 11.4102ZM15.5008 8.3502C17.5297 8.3502 19.4755 9.15618 20.9101 10.5908C22.3448 12.0255 23.1508 13.9713 23.1508 16.0002C23.1508 18.0291 22.3448 19.9749 20.9101 21.4096C19.4755 22.8442 17.5297 23.6502 15.5008 23.6502C13.4718 23.6502 11.526 22.8442 10.0914 21.4096C8.65673 19.9749 7.85075 18.0291 7.85075 16.0002C7.85075 13.9713 8.65673 12.0255 10.0914 10.5908C11.526 9.15618 13.4718 8.3502 15.5008 8.3502ZM25.4458 7.9677C25.4458 8.47492 25.2443 8.96137 24.8856 9.32004C24.5269 9.6787 24.0405 9.8802 23.5333 9.8802C23.026 9.8802 22.5396 9.6787 22.1809 9.32004C21.8222 8.96137 21.6208 8.47492 21.6208 7.9677C21.6208 7.46047 21.8222 6.97402 22.1809 6.61535C22.5396 6.25669 23.026 6.0552 23.5333 6.0552C24.0405 6.0552 24.5269 6.25669 24.8856 6.61535C25.2443 6.97402 25.4458 7.46047 25.4458 7.9677ZM15.5008 3.7602C11.7155 3.7602 11.0974 3.77091 9.33638 3.84894C8.13686 3.90555 7.33208 4.0662 6.58544 4.3569C5.96061 4.5863 5.39573 4.954 4.93304 5.43249C4.45416 5.89516 4.08596 6.46001 3.85592 7.08489C3.56522 7.83459 3.40457 8.63784 3.34949 9.83583C3.26993 11.5249 3.25922 12.1155 3.25922 16.0002C3.25922 19.7869 3.26993 20.4035 3.34796 22.1646C3.40457 23.3626 3.56522 24.1689 3.85439 24.914C4.11449 25.5795 4.42049 26.0584 4.92845 26.5664C5.44406 27.0805 5.92295 27.388 6.58085 27.642C7.33667 27.9342 8.14145 28.0964 9.33485 28.1515C11.024 28.231 11.6146 28.2402 15.4992 28.2402C19.286 28.2402 19.9026 28.2295 21.6636 28.1515C22.8601 28.0948 23.6648 27.9342 24.413 27.645C25.0373 27.4145 25.6019 27.047 26.0654 26.5694C26.581 26.0554 26.8885 25.5765 27.1425 24.917C27.4332 24.1643 27.5954 23.3595 27.6505 22.163C27.73 20.4754 27.7392 19.8833 27.7392 16.0002C27.7392 12.215 27.7285 11.5969 27.6505 9.83583C27.5939 8.63937 27.4317 7.83153 27.1425 7.08489C26.9119 6.46067 26.5444 5.89605 26.0669 5.43249C25.6045 4.95336 25.0396 4.58512 24.4145 4.35537C23.6648 4.06467 22.8601 3.90402 21.6636 3.84894C19.976 3.76938 19.3854 3.7602 15.4992 3.7602M15.4992 0.700195C19.6562 0.700195 20.1749 0.715495 21.8074 0.791995C23.4353 0.868495 24.5461 1.12401 25.5207 1.50345C26.5305 1.89207 27.3812 2.41839 28.2319 3.26754C29.0099 4.03238 29.6119 4.95756 29.996 5.9787C30.3739 6.95331 30.6309 8.06409 30.7074 9.69354C30.7793 11.3245 30.7992 11.8432 30.7992 16.0002C30.7992 20.1572 30.7839 20.6759 30.7074 22.3069C30.6309 23.9363 30.3739 25.0456 29.996 26.0217C29.6129 27.0434 29.0108 27.9688 28.2319 28.7329C27.4668 29.5106 26.5417 30.1125 25.5207 30.4969C24.5461 30.8749 23.4353 31.1319 21.8074 31.2084C20.1749 31.2803 19.6562 31.3002 15.4992 31.3002C11.3422 31.3002 10.8235 31.2849 9.19103 31.2084C7.56311 31.1319 6.45386 30.8749 5.47772 30.4969C4.45618 30.1136 3.53084 29.5115 2.76656 28.7329C1.98845 27.9681 1.38644 27.0429 1.00247 26.0217C0.623029 25.0471 0.367519 23.9363 0.291019 22.3069C0.217579 20.6759 0.199219 20.1572 0.199219 16.0002C0.199219 11.8432 0.214519 11.3245 0.291019 9.69354C0.367519 8.06409 0.623029 6.95484 1.00247 5.9787C1.38533 4.95693 1.98749 4.0315 2.76656 3.26754C3.53106 2.48912 4.45634 1.88706 5.47772 1.50345C6.45233 1.12401 7.56158 0.868495 9.19103 0.791995C10.8251 0.720085 11.3437 0.700195 15.5008 0.700195" fill="black"/>
</svg>
