<svg width="28" height="27" viewBox="0 0 28 27" fill="none" xmlns="http://www.w3.org/2000/svg">
<path d="M24.3873 0.387451C25.1631 0.387451 25.9071 0.69562 26.4556 1.24416C27.0041 1.79271 27.3123 2.53669 27.3123 3.31245V23.7875C27.3123 24.5632 27.0041 25.3072 26.4556 25.8557C25.9071 26.4043 25.1631 26.7125 24.3873 26.7125H3.91231C3.13655 26.7125 2.39256 26.4043 1.84402 25.8557C1.29547 25.3072 0.987305 24.5632 0.987305 23.7875V3.31245C0.987305 2.53669 1.29547 1.79271 1.84402 1.24416C2.39256 0.69562 3.13655 0.387451 3.91231 0.387451H24.3873ZM23.6561 23.0562V15.305C23.6561 14.0405 23.1537 12.8278 22.2596 11.9336C21.3655 11.0395 20.1528 10.5372 18.8883 10.5372C17.6452 10.5372 16.1973 11.2977 15.4953 12.4385V10.8151H11.4149V23.0562H15.4953V15.8461C15.4953 14.72 16.4021 13.7986 17.5282 13.7986C18.0712 13.7986 18.592 14.0143 18.976 14.3983C19.36 14.7823 19.5757 15.303 19.5757 15.8461V23.0562H23.6561ZM6.66181 8.51895C7.31344 8.51895 7.93839 8.26009 8.39917 7.79931C8.85994 7.33854 9.11881 6.71359 9.11881 6.06195C9.11881 4.70183 8.02193 3.59033 6.66181 3.59033C6.00629 3.59033 5.37762 3.85073 4.9141 4.31425C4.45058 4.77777 4.19018 5.40644 4.19018 6.06195C4.19018 7.42208 5.30168 8.51895 6.66181 8.51895ZM8.69468 23.0562V10.8151H4.64356V23.0562H8.69468Z" fill="black"/>
</svg>
