<svg width="31" height="24" viewBox="0 0 31 24" fill="none" xmlns="http://www.w3.org/2000/svg">
<path d="M15.6668 0C16.4678 0.0045 18.4718 0.0239999 20.6018 0.1095L21.3578 0.1425C23.5013 0.243 25.6433 0.417 26.7068 0.7125C28.1243 1.1115 29.2373 2.2725 29.6138 3.7455C30.2138 6.0855 30.2888 10.6485 30.2978 11.754L30.2993 11.982V12.243C30.2888 13.3485 30.2138 17.913 29.6138 20.2515C29.2328 21.729 28.1183 22.8915 26.7068 23.2845C25.6433 23.58 23.5013 23.754 21.3578 23.8545L20.6018 23.889C18.4718 23.973 16.4678 23.994 15.6668 23.997L15.3143 23.9985H14.9318C13.2368 23.988 6.14778 23.9115 3.89178 23.2845C2.47578 22.8855 1.36128 21.7245 0.984781 20.2515C0.384781 17.9115 0.309781 13.3485 0.300781 12.243V11.754C0.309781 10.6485 0.384781 6.084 0.984781 3.7455C1.36578 2.268 2.48028 1.1055 3.89328 0.714C6.14778 0.0854998 13.2383 0.009 14.9333 0H15.6668ZM12.2993 6.75V17.25L21.2993 12L12.2993 6.75Z" fill="black"/>
</svg>
