<svg width="87" height="16" viewBox="0 0 87 16" fill="none" xmlns="http://www.w3.org/2000/svg">
<path d="M3.30256 15H0.490057L5.6108 0.454545H8.86364L13.9915 15H11.179L7.29403 3.4375H7.1804L3.30256 15ZM3.39489 9.29688H11.0653V11.4134H3.39489V9.29688ZM18.5423 0.454545V15H15.9073V0.454545H18.5423ZM29.3004 4.45312C29.2341 3.83286 28.9548 3.34991 28.4624 3.00426C27.9747 2.65862 27.3402 2.4858 26.5589 2.4858C26.0097 2.4858 25.5386 2.56866 25.1456 2.73438C24.7526 2.90009 24.4519 3.125 24.2436 3.40909C24.0353 3.69318 23.9287 4.01752 23.924 4.3821C23.924 4.68513 23.9927 4.94792 24.13 5.17045C24.272 5.39299 24.4638 5.58239 24.7053 5.73864C24.9467 5.89015 25.2143 6.01799 25.5078 6.12216C25.8014 6.22633 26.0973 6.31392 26.3956 6.38494L27.7592 6.72585C28.3085 6.85369 28.8364 7.02651 29.343 7.24432C29.8544 7.46212 30.3113 7.73674 30.7138 8.06818C31.121 8.39962 31.4429 8.79972 31.6797 9.26847C31.9164 9.73722 32.0348 10.2865 32.0348 10.9162C32.0348 11.7685 31.817 12.5189 31.3814 13.1676C30.9458 13.8116 30.3161 14.3158 29.4922 14.6804C28.6731 15.0402 27.6811 15.2202 26.5163 15.2202C25.3847 15.2202 24.4022 15.045 23.5689 14.6946C22.7403 14.3442 22.0916 13.8329 21.6229 13.1605C21.1589 12.4882 20.9079 11.669 20.87 10.7031H23.4624C23.5002 11.2098 23.6565 11.6312 23.9311 11.9673C24.2057 12.3035 24.5632 12.5545 25.0036 12.7202C25.4486 12.8859 25.9458 12.9688 26.495 12.9688C27.0679 12.9688 27.5698 12.8835 28.0007 12.7131C28.4363 12.5379 28.7772 12.2964 29.0234 11.9886C29.2696 11.6761 29.3951 11.3116 29.3999 10.8949C29.3951 10.5161 29.2839 10.2036 29.0661 9.95739C28.8482 9.70644 28.5429 9.49811 28.1499 9.33239C27.7616 9.16193 27.3071 9.01042 26.7862 8.87784L25.1314 8.4517C23.9335 8.14394 22.9865 7.67756 22.2905 7.05256C21.5992 6.42282 21.2536 5.58712 21.2536 4.54545C21.2536 3.68845 21.4856 2.93797 21.9496 2.29403C22.4183 1.65009 23.0552 1.15057 23.8601 0.795454C24.665 0.435605 25.5765 0.255681 26.5945 0.255681C27.6267 0.255681 28.531 0.435605 29.3075 0.795454C30.0888 1.15057 30.7019 1.64536 31.147 2.27983C31.5921 2.90956 31.8217 3.634 31.8359 4.45312H29.3004ZM46.8342 5.36222H44.1779C44.1022 4.92661 43.9625 4.54072 43.7589 4.20455C43.5553 3.86364 43.302 3.57481 42.9989 3.33807C42.6959 3.10133 42.3503 2.92377 41.962 2.8054C41.5785 2.68229 41.1642 2.62074 40.7191 2.62074C39.9284 2.62074 39.2276 2.8196 38.6168 3.21733C38.006 3.61032 37.5278 4.18797 37.1822 4.95028C36.8365 5.70786 36.6637 6.63352 36.6637 7.72727C36.6637 8.83996 36.8365 9.77746 37.1822 10.5398C37.5326 11.2973 38.0108 11.8703 38.6168 12.2585C39.2276 12.642 39.926 12.8338 40.712 12.8338C41.1476 12.8338 41.5548 12.777 41.9336 12.6634C42.3171 12.545 42.6604 12.3722 42.9634 12.1449C43.2712 11.9176 43.5292 11.6383 43.7376 11.3068C43.9506 10.9754 44.0974 10.5966 44.1779 10.1705L46.8342 10.1847C46.7347 10.8759 46.5193 11.5246 46.1879 12.1307C45.8612 12.7367 45.4326 13.2718 44.9023 13.7358C44.372 14.1951 43.7518 14.5549 43.0415 14.8153C42.3313 15.071 41.543 15.1989 40.6765 15.1989C39.3981 15.1989 38.257 14.9029 37.2532 14.3111C36.2494 13.7192 35.4587 12.8646 34.881 11.7472C34.3034 10.6297 34.0146 9.28977 34.0146 7.72727C34.0146 6.16004 34.3058 4.82008 34.8881 3.70739C35.4705 2.58996 36.2636 1.73532 37.2674 1.14347C38.2712 0.551609 39.4076 0.255681 40.6765 0.255681C41.4862 0.255681 42.239 0.369318 42.935 0.59659C43.631 0.823863 44.2513 1.15767 44.7958 1.59801C45.3403 2.03362 45.7878 2.56866 46.1381 3.20312C46.4933 3.83286 46.7253 4.55256 46.8342 5.36222ZM58.4162 0.454545H61.0511V9.95739C61.0511 10.9991 60.8049 11.9152 60.3125 12.706C59.8248 13.4967 59.1383 14.1146 58.2528 14.5597C57.3674 15 56.3329 15.2202 55.1491 15.2202C53.9607 15.2202 52.9238 15 52.0384 14.5597C51.1529 14.1146 50.4664 13.4967 49.9787 12.706C49.491 11.9152 49.2472 10.9991 49.2472 9.95739V0.454545H51.8821V9.73722C51.8821 10.3433 52.0147 10.883 52.2798 11.3565C52.5497 11.83 52.9285 12.2017 53.4162 12.4716C53.9039 12.7367 54.4815 12.8693 55.1491 12.8693C55.8168 12.8693 56.3944 12.7367 56.8821 12.4716C57.3745 12.2017 57.7533 11.83 58.0185 11.3565C58.2836 10.883 58.4162 10.3433 58.4162 9.73722V0.454545ZM63.9151 15V0.454545H69.3697C70.4871 0.454545 71.4246 0.648674 72.1822 1.03693C72.9445 1.42519 73.5198 1.9697 73.908 2.67045C74.301 3.36648 74.4975 4.1785 74.4975 5.10653C74.4975 6.0393 74.2987 6.84896 73.9009 7.53551C73.5079 8.21733 72.9279 8.74526 72.1609 9.11932C71.3938 9.48864 70.4516 9.6733 69.3342 9.6733H65.4492V7.4858H68.979C69.6325 7.4858 70.1675 7.39583 70.5842 7.21591C71.0008 7.03125 71.3086 6.76373 71.5075 6.41335C71.7111 6.05824 71.8129 5.62263 71.8129 5.10653C71.8129 4.59044 71.7111 4.15009 71.5075 3.78551C71.3039 3.41619 70.9937 3.13684 70.5771 2.94744C70.1604 2.75331 69.623 2.65625 68.9648 2.65625H66.5501V15H63.9151ZM71.4293 8.40909L75.0302 15H72.0898L68.5529 8.40909H71.4293ZM76.9229 15V0.454545H86.3832V2.66335H79.5579V6.61222H85.8931V8.82102H79.5579V12.7912H86.44V15H76.9229Z" fill="white"/>
</svg>
